<svg xmlns="http://www.w3.org/2000/svg" viewBox="0 0 1920 1080" preserveAspectRatio="xMidYMid slice" role="img" aria-label="Placeholder for groups-golf-outing">
<rect width="1920" height="1080" fill="#F4F2ED"/>
<rect x="0" y="0" width="1920" height="1080" fill="#F4F2ED" opacity="1"/>
<rect x="0" y="0" width="1920" height="496" fill="#768993" opacity="0.18"/>
<polygon points="0,496 422,324 844,453 1305,291 1920,432 1920,496" fill="#292825" opacity="0.16"/>
<rect x="0" y="496" width="1920" height="1080" fill="#DED6CA" opacity="1"/>
<polygon points="192,1080 768,540 1190,540 1766,1080" fill="#747C6A" opacity="0.65"/>
<polygon points="844,540 1113,540 1056,475 902,475" fill="#747C6A" opacity="0.85"/>
<circle cx="979" cy="507" r="6" fill="#A65038"/>
<line x1="979" y1="507" x2="979" y2="432" stroke="#171716" stroke-width="2" opacity="0.7"/>
<ellipse cx="672" cy="669" rx="134" ry="32" fill="#F4F2ED" opacity="0.9"/>
<ellipse cx="1267" cy="626" rx="96" ry="23" fill="#F4F2ED" opacity="0.9"/>
<rect x="57" y="999" width="960" height="48" fill="#171716" opacity="0.82"/>
<text x="86" y="1049" font-family="Archivo, Arial, sans-serif" font-size="28" letter-spacing="2" fill="#F4F2ED">DEMONSTRATION IMAGE &#183; GROUPS GOLF OUTING</text>
<rect x="0" y="0" width="1920" height="1080" fill="none" stroke="#CDC8BF" stroke-width="2"/>
</svg>