<svg xmlns="http://www.w3.org/2000/svg" viewBox="0 0 1920 1080" preserveAspectRatio="xMidYMid slice" role="img" aria-label="Placeholder for dining-desert-terrace">
<rect width="1920" height="1080" fill="#F4F2ED"/>
<rect x="0" y="0" width="1920" height="1080" fill="#F4F2ED" opacity="1"/>
<rect x="0" y="0" width="1920" height="496" fill="#768993" opacity="0.18"/>
<polygon points="0,496 422,324 844,453 1305,291 1920,432 1920,496" fill="#292825" opacity="0.16"/>
<rect x="0" y="496" width="1920" height="1080" fill="#DED6CA" opacity="1"/>
<rect x="0" y="475" width="1920" height="32" fill="#171716" opacity="0.5"/>
<line x1="268" y1="507" x2="268" y2="475" stroke="#171716" stroke-width="3" opacity="0.6"/>
<line x1="499" y1="507" x2="499" y2="475" stroke="#171716" stroke-width="3" opacity="0.6"/>
<line x1="729" y1="507" x2="729" y2="475" stroke="#171716" stroke-width="3" opacity="0.6"/>
<line x1="960" y1="507" x2="960" y2="475" stroke="#171716" stroke-width="3" opacity="0.6"/>
<line x1="1190" y1="507" x2="1190" y2="475" stroke="#171716" stroke-width="3" opacity="0.6"/>
<line x1="1420" y1="507" x2="1420" y2="475" stroke="#171716" stroke-width="3" opacity="0.6"/>
<rect x="57" y="999" width="960" height="48" fill="#171716" opacity="0.82"/>
<text x="86" y="1049" font-family="Archivo, Arial, sans-serif" font-size="28" letter-spacing="2" fill="#F4F2ED">DEMONSTRATION IMAGE &#183; DINING DESERT TERRACE</text>
<rect x="0" y="0" width="1920" height="1080" fill="none" stroke="#CDC8BF" stroke-width="2"/>
</svg>