<svg xmlns="http://www.w3.org/2000/svg" viewBox="0 0 1200 1500" preserveAspectRatio="xMidYMid slice" role="img" aria-label="Placeholder for stay-private-terrace">
<rect width="1200" height="1500" fill="#F4F2ED"/>
<rect x="0" y="0" width="1200" height="1500" fill="#F4F2ED" opacity="1"/>
<rect x="0" y="0" width="1200" height="690" fill="#768993" opacity="0.18"/>
<polygon points="0,690 264,450 528,630 816,405 1200,600 1200,690" fill="#292825" opacity="0.16"/>
<rect x="0" y="690" width="1200" height="1500" fill="#DED6CA" opacity="1"/>
<rect x="0" y="660" width="1200" height="45" fill="#171716" opacity="0.5"/>
<line x1="168" y1="705" x2="168" y2="660" stroke="#171716" stroke-width="3" opacity="0.6"/>
<line x1="312" y1="705" x2="312" y2="660" stroke="#171716" stroke-width="3" opacity="0.6"/>
<line x1="456" y1="705" x2="456" y2="660" stroke="#171716" stroke-width="3" opacity="0.6"/>
<line x1="600" y1="705" x2="600" y2="660" stroke="#171716" stroke-width="3" opacity="0.6"/>
<line x1="744" y1="705" x2="744" y2="660" stroke="#171716" stroke-width="3" opacity="0.6"/>
<line x1="888" y1="705" x2="888" y2="660" stroke="#171716" stroke-width="3" opacity="0.6"/>
<rect x="36" y="1387" width="600" height="67" fill="#171716" opacity="0.82"/>
<text x="54" y="1458" font-family="Archivo, Arial, sans-serif" font-size="39" letter-spacing="2" fill="#F4F2ED">DEMONSTRATION IMAGE &#183; STAY PRIVATE TERRACE</text>
<rect x="0" y="0" width="1200" height="1500" fill="none" stroke="#CDC8BF" stroke-width="2"/>
</svg>