<svg xmlns="http://www.w3.org/2000/svg" viewBox="0 0 1600 1000" preserveAspectRatio="xMidYMid slice" role="img" aria-label="Placeholder for hole 9"><rect width="1600" height="1000" fill="#F4F2ED"/><rect width="1600" height="440" fill="#768993" opacity="0.16"/><polygon points="0,440 400,280 800,400 1200,260 1600,380 1600,440" fill="#171716" opacity="0.14"/><rect y="440" width="1600" height="1000" fill="#DED6CA"/><polygon points="192,1000 672,480 752,480 1440,1000" fill="#747C6A" opacity="0.62"/><ellipse cx="623" cy="470" rx="96" ry="30" fill="#747C6A" opacity="0.9"/><circle cx="623" cy="470" r="4" fill="#A65038"/><line x1="623" y1="470" x2="623" y2="432" stroke="#171716" stroke-width="2"/><ellipse cx="544" cy="660" rx="112" ry="28" fill="#F4F2ED" opacity="0.92"/><line x1="0" y1="560" x2="1600" y2="520" stroke="#171716" stroke-width="1" opacity="0.10"/><line x1="0" y1="650" x2="1600" y2="610" stroke="#171716" stroke-width="1" opacity="0.10"/><line x1="0" y1="740" x2="1600" y2="700" stroke="#171716" stroke-width="1" opacity="0.10"/><line x1="0" y1="830" x2="1600" y2="790" stroke="#171716" stroke-width="1" opacity="0.10"/><rect x="48" y="936" width="470" height="40" fill="#171716" opacity="0.82"/><text x="72" y="962" font-family="Archivo,Arial,sans-serif" font-size="22" letter-spacing="2" fill="#F4F2ED">DEMONSTRATION IMAGE &#183; HOLE 09</text><rect width="1600" height="1000" fill="none" stroke="#CDC8BF" stroke-width="2"/></svg>